<?xml version="1.0" encoding="utf-8"?>
<!-- Generator: Adobe Illustrator 14.0.0, SVG Export Plug-In . SVG Version: 6.00 Build 43363)  -->
<!DOCTYPE svg PUBLIC "-//W3C//DTD SVG 1.1//EN" "http://www.w3.org/Graphics/SVG/1.1/DTD/svg11.dtd">
<svg version="1.1" id="Layer_1" xmlns="http://www.w3.org/2000/svg" xmlns:xlink="http://www.w3.org/1999/xlink" x="0px" y="0px"
	 width="288px" height="216px" viewBox="0 0 288 216" enable-background="new 0 0 288 216" xml:space="preserve">
<g>
	<circle fill="none" cx="144.75" cy="107.835" r="21.144"/>
	<path fill="#231F20" d="M144.75,131.479c-13.037,0-23.644-10.606-23.644-23.644s10.606-23.644,23.644-23.644
		s23.644,10.606,23.644,23.644S157.787,131.479,144.75,131.479L144.75,131.479z M144.75,89.191c-10.28,0-18.644,8.363-18.644,18.644
		s8.363,18.644,18.644,18.644s18.644-8.363,18.644-18.644S155.03,89.191,144.75,89.191L144.75,89.191z"/>
</g>
<g>
	<path fill="#231F20" d="M159.738,109.859l-1.357-6.985c-0.043-0.213-0.117-0.403-0.177-0.602l-4.335,0.836l-0.268-1.383
		c-0.07-0.358,0.02-0.695,0.268-1.01c0.25-0.313,0.586-0.512,1.011-0.593c0.315-0.062,0.579-0.152,0.79-0.271
		c0.211-0.118,0.305-0.229,0.284-0.338l-0.03-0.152c-0.018-0.095-0.072-0.162-0.142-0.22c-0.026-0.017-0.054-0.028-0.081-0.044
		c-0.072-0.035-0.146-0.063-0.23-0.046l-0.379,0.074c-0.106,0.021-0.189,0.074-0.248,0.162c-0.06,0.091-0.077,0.188-0.057,0.295
		l0.029,0.155l-1.543,0.299l-0.075-0.384c-0.083-0.424-0.004-0.816,0.238-1.172c0.039-0.058,0.097-0.09,0.14-0.141
		c-0.611-0.083-1.24-0.083-1.896,0.044l-4.135,0.804c-1.555,0.301-2.774,1.103-3.657,2.406c-0.882,1.302-1.172,2.727-0.873,4.271
		l0.488,2.51l-0.432,0.083l-2.118-10.895l-8.382,1.628l-3.469,11.98l0.868,4.471l8.353-1.623l0.543,2.793l5.617-1.091l-0.543-2.794
		l0.431-0.083l0.001,0.005c0.301,1.545,1.104,2.756,2.411,3.634c1.307,0.875,2.737,1.165,4.291,0.861l4.136-0.804
		c1.552-0.301,2.771-1.104,3.653-2.406C159.747,112.832,160.039,111.406,159.738,109.859z M134.69,110.084l1.572-6.682l1.193,6.145
		L134.69,110.084z M153.775,111.18c-0.217,0.322-0.521,0.521-0.914,0.598l-1.396,0.271c-0.39,0.076-0.748,0.006-1.07-0.213
		c-0.323-0.219-0.522-0.521-0.597-0.913l-1.033-5.308c-0.076-0.392-0.006-0.747,0.213-1.071c0.216-0.322,0.521-0.521,0.914-0.598
		l1.395-0.271c0.392-0.077,0.748-0.007,1.071,0.214c0.322,0.217,0.521,0.521,0.598,0.912l1.032,5.308
		C154.064,110.502,153.992,110.855,153.775,111.18z"/>
	<path fill="#231F20" d="M155.522,101.353l2.101-0.407c-0.117-0.19-0.26-0.361-0.401-0.536c-0.245,0.292-0.567,0.484-0.976,0.563
		c-0.211,0.041-0.387,0.099-0.528,0.173C155.576,101.223,155.511,101.291,155.522,101.353z"/>
</g>
</svg>
